<?xml version="1.0" encoding="utf-8"?>
<!-- Generator: Adobe Illustrator 28.0.0, SVG Export Plug-In . SVG Version: 6.00 Build 0)  -->
<svg version="1.1" id="Calque_1" xmlns="http://www.w3.org/2000/svg" xmlns:xlink="http://www.w3.org/1999/xlink" x="0px" y="0px"
	 viewBox="0 0 128 128" style="enable-background:new 0 0 128 128;" xml:space="preserve">
<path d="M126,62h-10.1C114.9,34.9,93.1,13.1,66,12.1V2c0-1.1-0.9-2-2-2s-2,0.9-2,2v10.1c-27.1,1.1-48.9,22.8-50,49.9H2
	c-1.1,0-2,0.9-2,2c0,1.1,0.9,2,2,2h10.1c1.1,27.1,22.8,48.9,50,49.9V126c0,1.1,0.9,2,2,2s2-0.9,2-2V116
	c27.1-1.1,48.9-22.8,49.9-49.9H126c1.1,0,2-0.9,2-2C128,62.9,127.1,62,126,62z M66,112V102c0-1.1-0.9-2-2-2s-2,0.9-2,2v9.9
	c-24.9-1.1-44.9-21-46-45.9h10c1.1,0,2-0.9,2-2c0-1.1-0.9-2-2-2H16c1.1-24.9,21-44.9,46-46v9c0,1.1,0.9,2,2,2s2-0.9,2-2v-9
	c24.9,1.1,44.9,21,45.9,46H102c-1.1,0-2,0.9-2,2c0,1.1,0.9,2,2,2h9.9C110.9,90.9,90.9,110.9,66,112z"/>
</svg>
