<?xml version="1.0" encoding="utf-8"?>
<!-- Generator: Adobe Illustrator 28.0.0, SVG Export Plug-In . SVG Version: 6.00 Build 0)  -->
<svg version="1.1" id="Calque_1" xmlns="http://www.w3.org/2000/svg" xmlns:xlink="http://www.w3.org/1999/xlink" x="0px" y="0px"
	 viewBox="0 0 22.7 22.7" style="enable-background:new 0 0 22.7 22.7;" xml:space="preserve">
<path d="M20.3,2.3h-18C1.5,2.3,0.8,3,0.8,3.8v12c0,0.8,0.7,1.5,1.5,1.5h6.4c-0.3,0.4-0.7,0.8-1.1,1c-0.5,0.3-0.9,0.5-1,1
	c0,0.3,0.1,0.6,0.3,0.8c0.1,0.1,0.2,0.2,0.4,0.2h8c0.1,0,0.3-0.1,0.4-0.1c0.2-0.2,0.4-0.5,0.3-0.8c-0.1-0.5-0.5-0.7-1-1
	c-0.5-0.2-0.9-0.6-1.1-1h6.4c0.8,0,1.5-0.7,1.5-1.5c0,0,0,0,0,0v-12C21.8,3,21.2,2.3,20.3,2.3z M2.3,3.3h18c0.3,0,0.5,0.2,0.5,0.5
	v10.5h-19V3.8C1.8,3.6,2.1,3.3,2.3,3.3z M14.6,19.2l0.2,0.1H7.9l0.2-0.1c0.8-0.4,1.4-1,1.7-1.9h3.1C13.2,18.2,13.8,18.8,14.6,19.2z
	 M20.3,16.3h-18c-0.3,0-0.5-0.2-0.5-0.5v-0.5h19v0.5C20.8,16.1,20.6,16.3,20.3,16.3z"/>
</svg>
