<?xml version="1.0" encoding="utf-8"?>
<!-- Generator: Adobe Illustrator 28.0.0, SVG Export Plug-In . SVG Version: 6.00 Build 0)  -->
<svg version="1.1"
	 id="Calque_1" xmlns:sodipodi="http://sodipodi.sourceforge.net/DTD/sodipodi-0.dtd" xmlns:rdf="http://www.w3.org/1999/02/22-rdf-syntax-ns#" xmlns:inkscape="http://www.inkscape.org/namespaces/inkscape" xmlns:svg="http://www.w3.org/2000/svg" xmlns:cc="http://creativecommons.org/ns#" xmlns:dc="http://purl.org/dc/elements/1.1/"
	 xmlns="http://www.w3.org/2000/svg" xmlns:xlink="http://www.w3.org/1999/xlink" x="0px" y="0px" viewBox="0 0 99.2 99.2"
	 style="enable-background:new 0 0 99.2 99.2;" xml:space="preserve">
<g transform="translate(0,-952.36218)">
	<path d="M30.6,964c-14.4,0-24,11.8-24,25c0,12.5,7.1,23.3,15.9,32s19.4,15.1,26.6,18.9c0.3,0.2,0.6,0.2,0.9,0
		c7.2-3.7,17.8-10.2,26.6-18.9s15.9-19.5,15.9-32c0-13.2-9.6-25-24-25c-9.1,0-14.8,4.7-19,11.3C45.4,968.7,39.7,964,30.6,964z
		 M30.6,966c8.9,0,14,4.6,18.2,11.5c0.3,0.5,0.9,0.6,1.4,0.3c0.1-0.1,0.2-0.2,0.3-0.3c4.1-6.9,9.2-11.5,18.2-11.5
		c13.4,0,22,10.7,22,23c0,11.7-6.7,22.1-15.3,30.6c-8.4,8.3-18.6,14.6-25.7,18.2c-7.1-3.7-17.2-10-25.7-18.2
		c-8.6-8.4-15.3-18.9-15.3-30.6C8.6,976.7,17.2,966,30.6,966z"/>
</g>
</svg>
