<?xml version="1.0" encoding="utf-8"?>
<!-- Generator: Adobe Illustrator 28.0.0, SVG Export Plug-In . SVG Version: 6.00 Build 0)  -->
<svg version="1.1"
	 id="Calque_1" xmlns:sodipodi="http://sodipodi.sourceforge.net/DTD/sodipodi-0.dtd" xmlns:rdf="http://www.w3.org/1999/02/22-rdf-syntax-ns#" xmlns:inkscape="http://www.inkscape.org/namespaces/inkscape" xmlns:svg="http://www.w3.org/2000/svg" xmlns:cc="http://creativecommons.org/ns#" xmlns:dc="http://purl.org/dc/elements/1.1/"
	 xmlns="http://www.w3.org/2000/svg" xmlns:xlink="http://www.w3.org/1999/xlink" x="0px" y="0px" viewBox="0 0 99.2 99.2"
	 style="enable-background:new 0 0 99.2 99.2;" xml:space="preserve">
<g transform="translate(0,-952.36218)">
	<path d="M49.6,954c-0.6,0-1,0.4-1,1v8c0,0.6,0.4,1,1,1s1-0.4,1-1v-8C50.6,954.4,50.2,954,49.6,954z M21.3,965.7
		c-0.3,0-0.5,0.1-0.7,0.3c-0.4,0.4-0.4,1,0,1.4l5.7,5.7c0.4,0.4,1,0.4,1.4,0c0.4-0.4,0.4-1,0-1.4L22,966
		C21.8,965.8,21.6,965.7,21.3,965.7z M77.9,965.7c-0.3,0-0.5,0.1-0.7,0.3l-5.7,5.7c-0.4,0.4-0.4,1,0,1.4c0.4,0.4,1,0.4,1.4,0
		l5.7-5.7c0.4-0.4,0.4-1,0-1.4C78.4,965.8,78.1,965.7,77.9,965.7z M49.6,970c-12.7,0-25,9.9-25,23.8c0,8.9,3.4,14.5,6.7,19.1
		s6.3,8.3,6.3,14.1v12c0,2.8,2.4,5,5,5h2v1c0,2.8,2.2,5,5,5s5-2.2,5-5v-1h2c2.6,0,5-2.2,5-5v-12c0-5.7,3-9.4,6.3-14.1
		s6.7-10.2,6.7-19.1C74.6,979.8,62.3,970,49.6,970z M49.6,972c11.7,0,23,9,23,21.8c0,8.4-3.1,13.4-6.3,17.9
		c-3.1,4.3-6.3,8.3-6.7,14.2H39.6c-0.3-5.9-3.6-9.9-6.7-14.2c-3.2-4.6-6.3-9.5-6.3-17.9C26.6,981,37.9,972,49.6,972z M47.5,977.1
		c-8.9,1-15.9,8.7-15.9,17.9c0,1.8,0.3,3.6,0.8,5.3c0.2,0.5,0.8,0.8,1.3,0.7c0.5-0.2,0.8-0.8,0.7-1.3c-0.5-1.5-0.7-3-0.7-4.7
		c0-8.2,6.2-15,14.1-15.9c0.5,0,1-0.5,0.9-1.1C48.5,977.2,48.1,977.1,47.5,977.1z M9.6,994c-0.6,0-1,0.4-1,1s0.4,1,1,1h8
		c0.6,0,1-0.4,1-1s-0.4-1-1-1H9.6z M81.6,994c-0.6,0-1,0.4-1,1s0.4,1,1,1h8c0.6,0,1-0.4,1-1s-0.4-1-1-1H81.6z M39.6,1028h20v6h-20
		V1028z M39.6,1036h20v3c0,1.8-1.4,3-3,3h-14c-1.6,0-3-1.2-3-3V1036z M46.6,1044h6v1c0,1.7-1.3,3-3,3s-3-1.3-3-3V1044z"/>
</g>
</svg>
