<?xml version="1.0" encoding="utf-8"?>
<!-- Generator: Adobe Illustrator 28.0.0, SVG Export Plug-In . SVG Version: 6.00 Build 0)  -->
<svg version="1.1" id="Calque_1" xmlns="http://www.w3.org/2000/svg" xmlns:xlink="http://www.w3.org/1999/xlink" x="0px" y="0px"
	 viewBox="0 0 99.2 99.2" style="enable-background:new 0 0 99.2 99.2;" xml:space="preserve">
<g>
	<path d="M67.5,8.6H31.7c-3.3,0-6,2.7-6,6v70c0,3.3,2.7,6,6,6h35.8c3.3,0,6-2.7,6-6v-70C73.5,11.3,70.8,8.6,67.5,8.6z M31.7,10.6
		h35.8c2.2,0,4,1.8,4,4v5.2H27.7v-5.2C27.7,12.4,29.5,10.6,31.7,10.6L31.7,10.6z M71.5,21.8v52H27.7v-52H71.5z M67.5,88.6H31.7
		c-2.2,0-4-1.8-4-4v-8.8h43.8v8.8C71.5,86.8,69.7,88.6,67.5,88.6z"/>
</g>
</svg>
